<?xml version="1.0" encoding="iso-8859-1"?>
<!-- Generator: Adobe Illustrator 16.0.0, SVG Export Plug-In . SVG Version: 6.00 Build 0)  -->
<!DOCTYPE svg PUBLIC "-//W3C//DTD SVG 1.1//EN" "http://www.w3.org/Graphics/SVG/1.1/DTD/svg11.dtd">
<svg version="1.1" id="Capa_1" xmlns="http://www.w3.org/2000/svg" xmlns:xlink="http://www.w3.org/1999/xlink" x="0px" y="0px"
	 width="798.545px" height="798.545px" viewBox="0 0 798.545 798.545" style="enable-background:new 0 0 798.545 798.545;"
	 xml:space="preserve">
<g>
	<g>
		<path d="M205.739,88.946c0,11.761-9.533,21.292-21.292,21.292h-79.805c-11.759,0-21.292-9.531-21.292-21.292l0,0
			c0-11.758,9.533-21.292,21.292-21.292h79.804C196.206,67.655,205.739,77.188,205.739,88.946L205.739,88.946z"/>
		<path d="M205.739,192.428c0,11.761-9.533,21.292-21.292,21.292h-79.805c-11.759,0.001-21.292-9.531-21.292-21.292l0,0
			c0-11.758,9.533-21.292,21.292-21.292h79.804C196.206,171.137,205.739,180.67,205.739,192.428L205.739,192.428z"/>
		<path d="M205.739,295.911c0,11.76-9.533,21.292-21.292,21.292h-79.805c-11.759,0-21.292-9.532-21.292-21.292l0,0
			c0-11.759,9.533-21.292,21.292-21.292h79.804C196.206,274.619,205.739,284.152,205.739,295.911L205.739,295.911z"/>
		<path d="M205.739,399.393c0,11.759-9.533,21.292-21.292,21.292h-79.805c-11.759,0-21.292-9.533-21.292-21.292l0,0
			c0-11.759,9.533-21.292,21.292-21.292h79.804C196.206,378.101,205.739,387.634,205.739,399.393L205.739,399.393z"/>
		<path d="M205.739,502.875c0,11.76-9.533,21.293-21.292,21.293h-79.805c-11.759,0-21.292-9.533-21.292-21.293l0,0
			c0-11.758,9.533-21.291,21.292-21.291h79.804C196.206,481.584,205.739,491.117,205.739,502.875L205.739,502.875z"/>
		<path d="M205.739,606.355c0,11.762-9.533,21.295-21.292,21.295h-79.805c-11.759,0-21.292-9.533-21.292-21.295l0,0
			c0-11.756,9.533-21.289,21.292-21.289h79.804C196.206,585.066,205.739,594.6,205.739,606.355L205.739,606.355z"/>
		<path d="M205.739,709.838c0,11.762-9.533,21.295-21.292,21.295h-79.805c-11.759,0-21.292-9.533-21.292-21.295l0,0
			c0-11.758,9.533-21.291,21.292-21.291h79.804C196.206,688.547,205.739,698.08,205.739,709.838L205.739,709.838z"/>
		<path d="M679.966,0H172.067c-19.457,0-35.231,15.772-35.231,35.229v22.77h48.591c17.025,0,30.825,13.801,30.825,30.825
			c0,17.024-13.8,30.825-30.825,30.825h-48.591v41.832h48.591c17.025,0,30.825,13.801,30.825,30.825
			c0,17.024-13.8,30.825-30.825,30.825h-48.591v41.834h48.591c17.025,0,30.825,13.8,30.825,30.825s-13.8,30.825-30.825,30.825
			h-48.591v41.833h48.591c17.025,0,30.825,13.8,30.825,30.825c0,17.024-13.8,30.825-30.825,30.825h-48.591v41.834h48.591
			c17.025,0,30.825,13.799,30.825,30.824c0,17.021-13.8,30.824-30.825,30.824h-48.591v41.832h48.591
			c17.025,0,30.825,13.801,30.825,30.824c0,17.025-13.8,30.826-30.825,30.826h-48.591v41.834h48.591
			c17.025,0,30.825,13.799,30.825,30.822s-13.8,30.826-30.825,30.826h-48.591v22.77c0,19.457,15.774,35.23,35.231,35.23h507.898
			c19.457,0,35.229-15.773,35.229-35.23V35.229C715.195,15.772,699.423,0,679.966,0z M628.624,714.404H284.421
			c-5.881,0-10.647-4.768-10.647-10.646s4.766-10.646,10.647-10.646h344.203c5.877,0,10.645,4.766,10.645,10.646
			C639.269,709.637,634.501,714.404,628.624,714.404z M628.624,653.506H284.421c-5.881,0-10.647-4.768-10.647-10.646
			c0-5.881,4.766-10.645,10.647-10.645h344.203c5.877,0,10.645,4.764,10.645,10.645
			C639.268,648.738,634.501,653.506,628.624,653.506z M628.624,592.609H284.421c-5.881,0-10.647-4.768-10.647-10.646
			s4.766-10.646,10.647-10.646h344.203c5.877,0,10.645,4.766,10.645,10.646S634.501,592.609,628.624,592.609z M628.624,531.713
			H284.421c-5.881,0-10.647-4.77-10.647-10.646c0-5.881,4.766-10.645,10.647-10.645h344.203c5.877,0,10.645,4.764,10.645,10.645
			C639.268,526.943,634.501,531.713,628.624,531.713z M628.624,470.816H284.421c-5.881,0-10.647-4.768-10.647-10.646
			c0-5.881,4.766-10.646,10.647-10.646h344.203c5.877,0,10.645,4.766,10.645,10.646
			C639.269,466.049,634.501,470.816,628.624,470.816z M628.624,409.918H284.421c-5.881,0-10.647-4.77-10.647-10.646
			c0-5.88,4.766-10.646,10.647-10.646h344.203c5.877,0,10.645,4.767,10.645,10.646C639.268,405.15,634.501,409.918,628.624,409.918z
			 M628.624,349.021H284.421c-5.881,0-10.647-4.766-10.647-10.646s4.766-10.646,10.647-10.646h344.203
			c5.877,0,10.645,4.766,10.645,10.646S634.501,349.021,628.624,349.021z M628.624,288.124H284.421
			c-5.881,0-10.647-4.766-10.647-10.646s4.766-10.646,10.647-10.646h344.203c5.877,0,10.645,4.766,10.645,10.646
			S634.501,288.124,628.624,288.124z M628.624,227.227H284.421c-5.881,0-10.647-4.767-10.647-10.646s4.766-10.646,10.647-10.646
			h344.203c5.877,0,10.645,4.767,10.645,10.646C639.268,222.46,634.501,227.227,628.624,227.227z M628.624,166.33H284.421
			c-5.881,0-10.647-4.767-10.647-10.646s4.766-10.646,10.647-10.646h344.203c5.877,0,10.645,4.767,10.645,10.646
			C639.268,161.564,634.501,166.33,628.624,166.33z M628.624,105.433H284.421c-5.881,0-10.647-4.767-10.647-10.646
			c0-5.88,4.766-10.646,10.647-10.646h344.203c5.877,0,10.645,4.766,10.645,10.646C639.268,100.667,634.501,105.433,628.624,105.433
			z"/>
	</g>
</g>
<g>
</g>
<g>
</g>
<g>
</g>
<g>
</g>
<g>
</g>
<g>
</g>
<g>
</g>
<g>
</g>
<g>
</g>
<g>
</g>
<g>
</g>
<g>
</g>
<g>
</g>
<g>
</g>
<g>
</g>
</svg>
